<svg width="28" height="22" viewBox="0 0 28 22" fill="none" xmlns="http://www.w3.org/2000/svg">
<path d="M12.6268 15.3822C12.658 16.189 12.5196 16.9934 12.2203 17.7452C11.9211 18.4969 11.4674 19.1797 10.8878 19.7509C10.3081 20.322 9.61487 20.7692 8.85153 21.0645C8.08819 21.3597 7.27115 21.4967 6.45157 21.4667C4.83035 21.5139 3.2537 20.9404 2.05304 19.8669C0.861317 18.7844 0.270874 17.2913 0.270874 15.3822C0.270874 13.9601 0.828816 12.339 1.9447 10.5188L7.75704 1H13.9377L10.1459 10.5188C10.9454 11.0549 11.5928 11.7828 12.0269 12.6338C12.4611 13.4848 12.6675 14.4307 12.6268 15.3822ZM26.2937 15.3822C26.3249 16.1894 26.1863 16.9944 25.8868 17.7465C25.5872 18.4986 25.133 19.1816 24.5528 19.7529C23.9725 20.3241 23.2786 20.7712 22.5147 21.0661C21.7507 21.361 20.933 21.4974 20.113 21.4667C18.4934 21.5141 16.9183 20.9406 15.7199 19.8669C14.5282 18.8004 13.9377 17.3019 13.9377 15.3928C13.9377 13.9708 14.4939 12.3497 15.6061 10.5295L21.4239 1H27.6263L23.8344 10.5188C24.6299 11.0573 25.2731 11.7864 25.7033 12.6372C26.1336 13.488 26.3368 14.4327 26.2937 15.3822Z" fill="#581C87" stroke="#581C87" stroke-miterlimit="10"/>
</svg>
