<svg width="26" height="32" viewBox="0 0 26 32" fill="none" xmlns="http://www.w3.org/2000/svg">
<path d="M8.25008 4.91667H5.08341C4.24356 4.91667 3.43811 5.2503 2.84424 5.84416C2.25038 6.43803 1.91675 7.24348 1.91675 8.08333V27.0833C1.91675 27.9232 2.25038 28.7286 2.84424 29.3225C3.43811 29.9164 4.24356 30.25 5.08341 30.25H20.9167C21.7566 30.25 22.5621 29.9164 23.1559 29.3225C23.7498 28.7286 24.0834 27.9232 24.0834 27.0833V8.08333C24.0834 7.24348 23.7498 6.43803 23.1559 5.84416C22.5621 5.2503 21.7566 4.91667 20.9167 4.91667H17.7501M8.25008 4.91667C8.25008 5.75652 8.58371 6.56197 9.17758 7.15584C9.77144 7.7497 10.5769 8.08333 11.4167 8.08333H14.5834C15.4233 8.08333 16.2287 7.7497 16.8226 7.15584C17.4165 6.56197 17.7501 5.75652 17.7501 4.91667M8.25008 4.91667C8.25008 4.07681 8.58371 3.27136 9.17758 2.6775C9.77144 2.08363 10.5769 1.75 11.4167 1.75H14.5834C15.4233 1.75 16.2287 2.08363 16.8226 2.6775C17.4165 3.27136 17.7501 4.07681 17.7501 4.91667M8.25008 19.1667L11.4167 22.3333L17.7501 16" stroke="white" stroke-width="2" stroke-linecap="round" stroke-linejoin="round"/>
</svg>
