<svg width="38" height="38" viewBox="0 0 38 38" fill="none" xmlns="http://www.w3.org/2000/svg">
<path d="M21.6521 6.83525C20.9776 4.05492 17.0224 4.05492 16.3479 6.83525C15.9109 8.63233 13.8526 9.48417 12.2756 8.5215C9.83092 7.03317 7.03475 9.83092 8.52308 12.274C8.74681 12.6409 8.88074 13.0555 8.91396 13.484C8.94718 13.9125 8.87876 14.3428 8.71426 14.7398C8.54977 15.1368 8.29385 15.4894 7.96733 15.7689C7.64082 16.0483 7.25293 16.2467 6.83525 16.3479C4.05492 17.0224 4.05492 20.9776 6.83525 21.6521C7.25256 21.7536 7.64004 21.9521 7.96618 22.2315C8.29233 22.5109 8.54794 22.8633 8.71225 23.2601C8.87655 23.6569 8.94491 24.0869 8.91177 24.5151C8.87862 24.9433 8.74491 25.3576 8.5215 25.7244C7.03317 28.1691 9.83092 30.9653 12.274 29.4769C12.6409 29.2532 13.0555 29.1193 13.484 29.086C13.9125 29.0528 14.3428 29.1212 14.7398 29.2857C15.1368 29.4502 15.4894 29.7062 15.7689 30.0327C16.0483 30.3592 16.2467 30.7471 16.3479 31.1648C17.0224 33.9451 20.9776 33.9451 21.6521 31.1648C21.7536 30.7474 21.9521 30.36 22.2315 30.0338C22.5109 29.7077 22.8633 29.4521 23.2601 29.2878C23.6569 29.1234 24.0869 29.0551 24.5151 29.0882C24.9433 29.1214 25.3576 29.2551 25.7244 29.4785C28.1691 30.9668 30.9653 28.1691 29.4769 25.726C29.2532 25.3591 29.1193 24.9445 29.086 24.516C29.0528 24.0875 29.1212 23.6572 29.2857 23.2602C29.4502 22.8632 29.7062 22.5106 30.0327 22.2311C30.3592 21.9517 30.7471 21.7533 31.1648 21.6521C33.9451 20.9776 33.9451 17.0224 31.1648 16.3479C30.7474 16.2464 30.36 16.0479 30.0338 15.7685C29.7077 15.4891 29.4521 15.1367 29.2878 14.7399C29.1234 14.3431 29.0551 13.9131 29.0882 13.4849C29.1214 13.0567 29.2551 12.6424 29.4785 12.2756C30.9668 9.83092 28.1691 7.03475 25.726 8.52308C25.3591 8.74681 24.9445 8.88074 24.516 8.91396C24.0875 8.94718 23.6572 8.87876 23.2602 8.71426C22.8632 8.54977 22.5106 8.29385 22.2311 7.96733C21.9517 7.64082 21.7533 7.25293 21.6521 6.83525Z" stroke="white" stroke-width="2" stroke-linecap="round" stroke-linejoin="round"/>
<path d="M22.3588 22.3588C23.2496 21.468 23.75 20.2598 23.75 19C23.75 17.7402 23.2496 16.532 22.3588 15.6412C21.468 14.7504 20.2598 14.25 19 14.25C17.7402 14.25 16.532 14.7504 15.6412 15.6412C14.7504 16.532 14.25 17.7402 14.25 19C14.25 20.2598 14.7504 21.468 15.6412 22.3588C16.532 23.2496 17.7402 23.75 19 23.75C20.2598 23.75 21.468 23.2496 22.3588 22.3588Z" stroke="white" stroke-width="2" stroke-linecap="round" stroke-linejoin="round"/>
</svg>
