<svg width="582" height="201" viewBox="0 0 582 201" fill="none" xmlns="http://www.w3.org/2000/svg">
<path fill-rule="evenodd" clip-rule="evenodd" d="M113.193 -530.433C183.454 -585.981 306.174 -569.002 409.742 -583.257C515.991 -597.881 618.29 -696.9 726.839 -614.895C851.949 -520.378 733.119 -358.465 846.999 -252.923C991.814 -118.711 1296.22 -179.427 1367.05 -21.5585C1430.47 119.786 1140.66 77.1521 1009.98 110.341C944.827 126.886 865.928 110.051 798.357 122.872C723.017 137.168 677.057 188.518 594.529 189.168C446.274 190.337 280.011 235.745 137.949 128.078C4.04318 26.5921 6.05073 -135.529 1.35672 -260.39C-2.80585 -371.115 34.2463 -468.018 113.193 -530.433Z" stroke="#581C87"/>
<path fill-rule="evenodd" clip-rule="evenodd" d="M149.151 -580.757C219.412 -636.305 342.132 -619.326 445.699 -633.581C551.948 -648.205 654.247 -747.224 762.797 -665.219C887.906 -570.702 769.076 -408.789 882.957 -303.247C1027.77 -169.035 1332.18 -229.75 1403.01 -71.8823C1466.42 69.4623 1176.61 26.8283 1045.93 60.0168C980.785 76.5626 901.886 59.7275 834.315 72.5486C758.975 86.8437 713.015 138.194 630.486 138.845C482.232 140.013 315.968 185.421 173.907 77.754C40.0008 -23.7318 42.0084 -185.852 37.3144 -310.714C33.1518 -421.439 70.2039 -518.342 149.151 -580.757Z" stroke="#581C87"/>
<path fill-rule="evenodd" clip-rule="evenodd" d="M122.183 -543.014C192.443 -598.562 315.163 -581.583 418.731 -595.838C524.98 -610.462 627.279 -709.481 735.828 -627.476C860.938 -532.959 742.108 -371.046 855.988 -265.504C1000.8 -131.292 1305.21 -192.007 1376.04 -34.1394C1439.46 107.205 1149.65 64.5712 1018.97 97.7598C953.817 114.306 874.918 97.4704 807.347 110.291C732.007 124.587 686.047 175.937 603.518 176.588C455.263 177.756 289 223.164 146.938 115.497C13.0326 14.0111 15.0401 -148.11 10.3461 -272.971C6.18355 -383.696 43.2357 -480.599 122.183 -543.014Z" stroke="#581C87"/>
<path fill-rule="evenodd" clip-rule="evenodd" d="M158.14 -593.338C228.401 -648.886 351.121 -631.907 454.689 -646.161C560.938 -660.785 663.237 -759.805 771.786 -677.799C896.896 -583.283 778.066 -421.37 891.946 -315.828C1036.76 -181.616 1341.17 -242.331 1412 -84.4633C1475.41 56.8814 1185.6 14.2473 1054.92 47.4359C989.774 63.9817 910.875 47.1465 843.304 59.9676C767.965 74.2627 722.004 125.613 639.476 126.264C491.221 127.432 324.958 172.84 182.896 65.173C48.9902 -36.3128 50.9978 -198.433 46.3038 -323.295C42.1412 -434.02 79.1933 -530.923 158.14 -593.338Z" stroke="#581C87"/>
<path fill-rule="evenodd" clip-rule="evenodd" d="M131.172 -555.595C201.433 -611.143 324.153 -594.164 427.72 -608.419C533.969 -623.043 636.268 -722.062 744.818 -640.057C869.927 -545.54 751.098 -383.627 864.978 -278.085C1009.79 -143.873 1314.2 -204.588 1385.03 -46.7203C1448.44 94.6243 1158.63 51.9902 1027.95 85.1788C962.806 101.725 883.907 84.8894 816.336 97.7105C740.996 112.006 695.036 163.356 612.507 164.007C464.253 165.175 297.99 210.583 155.928 102.916C22.022 1.43016 24.0295 -160.69 19.3355 -285.552C15.173 -396.277 52.2251 -493.18 131.172 -555.595Z" stroke="#581C87"/>
<path fill-rule="evenodd" clip-rule="evenodd" d="M140.161 -568.176C210.422 -623.724 333.142 -606.745 436.71 -621C542.959 -635.624 645.258 -734.643 753.807 -652.638C878.917 -558.121 760.087 -396.208 873.967 -290.666C1018.78 -156.454 1323.19 -217.169 1394.02 -59.3013C1457.43 82.0433 1167.62 39.4093 1036.94 72.5979C971.796 89.1437 892.897 72.3085 825.325 85.1296C749.986 99.4247 704.026 150.775 621.497 151.426C473.242 152.594 306.979 198.002 164.917 90.335C31.0114 -11.1508 33.0189 -173.271 28.3249 -298.133C24.1624 -408.858 61.2145 -505.761 140.161 -568.176Z" stroke="#581C87"/>
</svg>
